<svg width="32" height="32" viewBox="0 0 32 32" fill="none" xmlns="http://www.w3.org/2000/svg">
<path d="M10.8679 6.17508C9.31169 6.17508 8.34755 6.65644 7.55592 7.49297C7.03223 8.04627 5.94537 9.22206 5.45592 9.80631C5.18638 10.128 4.95793 10.6101 5.15783 10.9508C5.32582 11.2373 5.50403 11.579 6.06391 11.579C6.59925 11.579 9.63218 11.5701 9.96832 11.5701C9.9677 11.5776 9.96779 11.581 9.96779 11.581C9.96877 11.9305 9.97055 12.4768 9.97286 13.1488H9.96779C9.96764 13.0807 9.95405 13.0132 9.9278 12.9504C9.90155 12.8875 9.86316 12.8304 9.81482 12.7824C9.76648 12.7344 9.70915 12.6964 9.6461 12.6705C9.58305 12.6447 9.51552 12.6316 9.44739 12.6319C7.82386 12.6389 5.38584 12.672 4.12593 12.672C4.00978 12.6692 3.89444 12.6919 3.78801 12.7385C3.65525 12.8077 3.54151 12.9085 3.45676 13.0319C2.69145 14.0665 1.4399 15.9241 0.75214 17.0908C0.572849 17.3667 0.470579 17.6855 0.455925 18.0142C0.451479 19.1402 0.435383 19.9964 0.425512 21.4121C0.400201 21.4083 0.374359 21.41 0.349752 21.417C0.325145 21.4241 0.302353 21.4364 0.282934 21.4531C0.263516 21.4698 0.247927 21.4904 0.237235 21.5137C0.226543 21.537 0.220999 21.5623 0.220981 21.5879C0.220447 21.8978 0.217335 22.4263 0.214845 22.8777C0.214377 22.9712 0.232318 23.0638 0.267643 23.1503C0.302969 23.2368 0.354987 23.3155 0.420727 23.3819C0.486467 23.4482 0.564642 23.501 0.650786 23.5372C0.736931 23.5734 0.829358 23.5922 0.92279 23.5927C1.65635 23.5961 3.6178 23.6016 3.7319 23.6016L8.20091 23.6173C9.09231 23.6173 18.5337 23.6093 19.5704 23.61L23.9385 23.6173C24.6651 23.6173 28.536 23.6151 30.0567 23.6173C30.1502 23.6175 30.2428 23.5991 30.3293 23.5634C30.4157 23.5277 30.4942 23.4752 30.5603 23.409C30.6264 23.3429 30.6788 23.2643 30.7144 23.1778C30.7501 23.0914 30.7683 22.9987 30.7681 22.9052C30.7671 22.4117 30.7681 21.2723 30.7681 21.2723C30.7681 17.9034 30.7498 9.85593 30.7484 6.58841C30.7484 6.54181 30.7393 6.49565 30.7215 6.45258C30.7036 6.40951 30.6775 6.37038 30.6446 6.33741C30.6116 6.30445 30.5725 6.27831 30.5294 6.26048C30.4864 6.24265 30.4402 6.23348 30.3936 6.2335C26.4663 6.23048 13.314 6.17508 10.8989 6.17508" fill="white"/>
<path d="M9.96779 13.1487C9.96764 13.0806 9.95405 13.0131 9.9278 12.9503C9.90155 12.8874 9.86316 12.8303 9.81482 12.7823C9.76648 12.7343 9.70915 12.6963 9.6461 12.6704C9.58305 12.6446 9.51553 12.6315 9.44739 12.6318C8.49855 12.6359 7.27154 12.6489 6.16404 12.659C5.99436 12.2882 5.84408 11.9089 5.71381 11.5226C5.82627 11.5619 5.9448 11.581 6.06391 11.579C6.59925 11.579 9.63254 11.5701 9.96833 11.5701C9.9677 11.579 9.96779 11.581 9.96779 11.581C9.96913 12.072 9.97215 12.0968 9.97588 13.1675" fill="#BDBDBD"/>
<path d="M29.1922 13.4648C28.5541 13.4661 27.916 13.4678 27.2779 13.4701L26.1899 13.4731L25.7413 13.4742C25.592 13.4742 25.4262 13.4542 25.2948 13.5379C25.0482 13.6952 25.1162 14.0747 25.1155 14.3279C25.1147 14.6192 25.1138 14.9106 25.1128 15.2019C25.1105 15.9205 25.1081 16.6391 25.1055 17.3578C25.1033 18.0048 25.1012 18.6519 25.0992 19.2991C25.0992 19.4152 25.0989 19.5314 25.0983 19.6476C25.0983 19.8062 25.0859 19.9677 25.2035 20.0936C25.331 20.23 25.5022 20.2181 25.6719 20.2176L26.0846 20.2162C26.828 20.2135 27.5714 20.2109 28.3148 20.2082C28.6188 20.2074 28.9338 20.2301 29.2367 20.2037C29.2966 20.199 29.3547 20.1808 29.4064 20.1503C29.4582 20.1198 29.5024 20.0779 29.5355 20.0277C29.6075 19.9148 29.5988 19.789 29.5987 19.6608C29.5987 19.4064 29.5985 19.152 29.598 18.8977C29.5955 17.2339 29.5868 15.5701 29.5835 13.9062C29.583 13.662 29.443 13.4845 29.1922 13.4648C29.1358 13.4653 29.0818 13.488 29.0419 13.5279C29.0019 13.5678 28.9793 13.6218 28.9788 13.6783C28.9799 13.7345 29.0027 13.7882 29.0425 13.828C29.0823 13.8678 29.136 13.8906 29.1922 13.8917C29.1832 13.8891 29.1746 13.8856 29.1664 13.8811C29.1327 13.8419 29.1656 13.8506 29.1566 13.8633C29.1476 13.876 29.1566 13.9256 29.1566 13.9414C29.1566 13.9996 29.1566 14.0577 29.1566 14.1157C29.1569 14.2541 29.1573 14.3924 29.1578 14.5307L29.1616 15.5843C29.1646 16.4782 29.1673 17.3721 29.1695 18.266C29.1704 18.7373 29.171 19.2086 29.1713 19.6799V19.7764C29.1669 19.8234 29.1699 19.8276 29.1802 19.7889C29.2122 19.776 29.2108 19.7861 29.1878 19.7791C29.1223 19.7708 29.0561 19.7708 28.9906 19.7791L28.5474 19.7802C27.8431 19.7822 27.1388 19.7847 26.4345 19.7875L25.5991 19.7905C25.5623 19.7869 25.5253 19.7866 25.4884 19.7895C25.5151 19.7486 25.5079 19.871 25.524 19.8061C25.5268 19.7795 25.5268 19.7527 25.524 19.7261C25.524 19.6229 25.5242 19.5197 25.5247 19.4165C25.5262 18.8296 25.528 18.2427 25.5302 17.6558C25.5344 16.4404 25.5383 15.2251 25.5421 14.0098C25.5493 13.9662 25.5493 13.9216 25.5421 13.878C25.5318 13.8584 25.5448 13.8702 25.532 13.8916C25.5126 13.9241 25.4946 13.8916 25.5216 13.9005C25.5381 13.9024 25.5548 13.9024 25.5713 13.9005C25.6923 13.9005 25.8133 13.9002 25.9343 13.8997L26.8924 13.8971C27.5505 13.8952 28.2085 13.8934 28.8666 13.8915L29.1908 13.8908C29.4668 13.8912 29.4674 13.4643 29.1922 13.4648Z" fill="#211715"/>
<path d="M8.67737 14.0175C8.67695 13.929 8.64146 13.8442 8.57866 13.7817C8.51586 13.7192 8.43087 13.6842 8.3423 13.6842C7.35077 13.6832 5.90153 13.6783 5.02836 13.6783C4.90631 13.673 4.78451 13.6932 4.67069 13.7376C4.54347 13.8106 4.43637 13.9141 4.35901 14.0387C3.83967 14.7384 2.98509 16.0218 2.29377 17.112C2.2386 17.199 2.21054 17.3004 2.21316 17.4034C2.21578 17.5064 2.24897 17.6063 2.3085 17.6903C2.36803 17.7744 2.45121 17.8389 2.54748 17.8756C2.64374 17.9122 2.74874 17.9195 2.84912 17.8963C4.64437 17.4832 6.97176 16.959 8.43878 16.6047C8.51015 16.5874 8.57359 16.5465 8.61885 16.4887C8.6641 16.4309 8.68851 16.3595 8.68813 16.286C8.68484 15.5874 8.67995 14.5478 8.67737 14.0175Z" fill="#87CCE3"/>
<path d="M30.9705 9.81937C31.0802 9.84218 31.1852 9.88362 31.2809 9.94191C31.351 9.99322 31.3563 10.1082 31.3572 10.199C31.3579 10.2578 31.3572 10.3166 31.3572 10.3752C31.3572 10.5833 31.3574 10.7914 31.3579 10.9995C31.3585 11.684 31.3593 12.3685 31.3601 13.0528C31.3611 13.9327 31.3621 14.8125 31.3631 15.6922C31.364 16.5592 31.3649 17.4263 31.3657 18.2934C31.3663 18.9422 31.3668 19.591 31.367 20.2398V20.4033C31.367 20.678 31.7939 20.6785 31.7939 20.4033C31.7939 19.7804 31.7935 19.1575 31.7928 18.5344C31.792 17.6671 31.7912 16.7997 31.7902 15.9323C31.7892 15.029 31.7881 14.1257 31.7871 13.2225L31.7847 11.078C31.7847 10.8559 31.7845 10.6338 31.7842 10.4117C31.7842 10.0813 31.783 9.73658 31.457 9.54912C31.3379 9.48867 31.2127 9.44118 31.0835 9.40746C30.8211 9.32422 30.7088 9.73649 30.9701 9.8191L30.9705 9.81937Z" fill="#211715"/>
<path d="M31.0144 11.6329C31.2718 11.6329 31.5291 11.6311 31.7864 11.6311C31.8144 11.6311 31.8422 11.6256 31.8681 11.6148C31.894 11.6041 31.9175 11.5884 31.9373 11.5686C31.9571 11.5487 31.9729 11.5252 31.9836 11.4993C31.9943 11.4734 31.9998 11.4457 31.9998 11.4176C31.9998 11.3896 31.9943 11.3619 31.9836 11.336C31.9729 11.3101 31.9571 11.2866 31.9373 11.2667C31.9175 11.2469 31.894 11.2312 31.8681 11.2205C31.8422 11.2097 31.8144 11.2042 31.7864 11.2042C31.5291 11.2042 31.2718 11.2061 31.0144 11.2061C30.9578 11.2061 30.9035 11.2286 30.8635 11.2686C30.8235 11.3086 30.801 11.3629 30.801 11.4195C30.801 11.4761 30.8235 11.5304 30.8635 11.5704C30.9035 11.6105 30.9578 11.6329 31.0144 11.6329Z" fill="#211715"/>
<path d="M31.0144 12.8252C31.2718 12.8252 31.5291 12.8233 31.7864 12.8233C31.843 12.8233 31.8973 12.8008 31.9373 12.7608C31.9773 12.7208 31.9998 12.6665 31.9998 12.6099C31.9998 12.5533 31.9773 12.499 31.9373 12.459C31.8973 12.4189 31.843 12.3965 31.7864 12.3965C31.5291 12.3965 31.2718 12.3983 31.0144 12.3983C30.9578 12.3983 30.9035 12.4208 30.8635 12.4608C30.8235 12.5009 30.801 12.5551 30.801 12.6117C30.801 12.6683 30.8235 12.7226 30.8635 12.7627C30.9035 12.8027 30.9578 12.8252 31.0144 12.8252Z" fill="#211715"/>
<path d="M24.9068 15.3317C24.9068 15.4286 24.9086 15.5255 24.9086 15.6226C24.9093 15.6791 24.9315 15.7332 24.9709 15.7737C25.0123 15.8117 25.0659 15.8337 25.1221 15.836C25.1787 15.8359 25.233 15.8135 25.2732 15.7737C25.3125 15.7331 25.3348 15.679 25.3355 15.6226C25.3355 15.5255 25.3337 15.4286 25.3336 15.3317C25.3331 15.2752 25.3108 15.221 25.2714 15.1805C25.23 15.1424 25.1764 15.1204 25.1202 15.1183C25.0636 15.1183 25.0093 15.1407 24.969 15.1805C24.9298 15.2211 24.9075 15.2752 24.9068 15.3317Z" fill="#211715"/>
<path d="M24.9068 18.1179C24.9068 18.2149 24.9086 18.3119 24.9086 18.4088C24.9092 18.4653 24.9315 18.5194 24.9709 18.56C25.0123 18.5979 25.0659 18.62 25.1221 18.6222C25.1787 18.6221 25.233 18.5998 25.2732 18.56C25.3125 18.5194 25.3348 18.4653 25.3355 18.4088C25.3355 18.3119 25.3337 18.2149 25.3336 18.1179C25.3331 18.0614 25.3108 18.0073 25.2714 17.9668C25.2299 17.9288 25.1764 17.9067 25.1202 17.9045C25.0636 17.9046 25.0093 17.927 24.969 17.9668C24.9298 18.0074 24.9075 18.0615 24.9068 18.1179Z" fill="#211715"/>
<path d="M5.80878 21.0095C5.4791 21.003 5.15147 21.0628 4.8454 21.1855C4.53932 21.3082 4.26106 21.4912 4.02718 21.7237C3.7933 21.9561 3.60858 22.2332 3.48401 22.5385C3.35945 22.8439 3.29759 23.1711 3.30212 23.5008C3.30212 25.0559 4.27142 26.0388 5.80887 26.0388C7.3818 26.0388 8.31562 25.0559 8.31562 23.5008C8.31562 22.1483 7.28576 21.0095 5.80878 21.0095Z" fill="#211715"/>
<path d="M5.80887 22.6898C5.69944 22.6876 5.5907 22.7075 5.48911 22.7482C5.38752 22.789 5.29517 22.8497 5.21756 22.9269C5.13995 23.0041 5.07867 23.0961 5.03736 23.1974C4.99606 23.2988 4.97558 23.4074 4.97714 23.5168C4.97714 24.0326 5.29887 24.359 5.80887 24.359C6.33078 24.359 6.64069 24.0329 6.64069 23.5168C6.64235 23.4074 6.62193 23.2987 6.58066 23.1973C6.53938 23.0959 6.47809 23.0038 6.40045 22.9266C6.32281 22.8494 6.23041 22.7887 6.12877 22.748C6.02713 22.7073 5.91833 22.6875 5.80887 22.6898Z" fill="white"/>
<path d="M21.8425 21.0095C21.5128 21.003 21.1852 21.0628 20.8791 21.1855C20.5731 21.3082 20.2948 21.4912 20.0609 21.7237C19.827 21.9561 19.6423 22.2332 19.5178 22.5385C19.3932 22.8439 19.3313 23.1711 19.3359 23.5008C19.3359 25.0559 20.3052 26.0388 21.8426 26.0388C23.4156 26.0388 24.3494 25.0559 24.3494 23.5008C24.3494 22.1483 23.3195 21.0095 21.8425 21.0095Z" fill="#211715"/>
<path d="M21.8426 22.6898C21.7332 22.6876 21.6244 22.7075 21.5229 22.7482C21.4213 22.789 21.3289 22.8497 21.2513 22.9269C21.1737 23.0041 21.1124 23.0961 21.0711 23.1974C21.0298 23.2988 21.0093 23.4074 21.0109 23.5168C21.0109 24.0326 21.3325 24.359 21.8426 24.359C22.3645 24.359 22.6744 24.0329 22.6744 23.5168C22.6761 23.4074 22.6557 23.2987 22.6144 23.1973C22.5731 23.0959 22.5118 23.0038 22.4342 22.9266C22.3566 22.8494 22.2642 22.7887 22.1625 22.748C22.0609 22.7073 21.9521 22.6875 21.8426 22.6898Z" fill="white"/>
<path d="M10.8679 5.96163C10.2738 5.95193 9.68202 6.03934 9.11605 6.22041C8.63325 6.38686 8.18562 6.64167 7.79602 6.97184C7.43632 7.27419 7.12587 7.63772 6.80707 7.98205C6.43545 8.38337 6.06587 8.78692 5.70314 9.19634C5.35045 9.59456 4.93481 10.0081 4.87461 10.5636C4.84553 10.8318 4.95882 11.057 5.1043 11.2727C5.23507 11.4811 5.43008 11.6414 5.65992 11.7292C5.95035 11.8346 6.31068 11.7921 6.61641 11.7915C7.01107 11.7907 7.40578 11.7897 7.80056 11.7886C8.49763 11.7869 9.19472 11.7851 9.89185 11.7835H9.97704C10.2517 11.7835 10.2522 11.3566 9.97704 11.3566C8.70423 11.3566 7.43151 11.3642 6.15871 11.3655C5.99353 11.3801 5.82766 11.3469 5.68081 11.2698C5.53409 11.1788 5.44738 11.0254 5.35365 10.8623C5.23663 10.6586 5.32119 10.4186 5.42631 10.2265C5.54421 10.0317 5.68299 9.85034 5.84017 9.68562C6.17863 9.29781 6.52553 8.91729 6.87403 8.53846C7.18172 8.20392 7.48549 7.86262 7.80705 7.54124C8.16335 7.17557 8.59094 6.88694 9.06332 6.69323C9.64074 6.47981 10.253 6.37648 10.8685 6.38857C11.1431 6.38786 11.1437 5.96101 10.8685 5.96172L10.8679 5.96163Z" fill="#211715"/>
<path d="M0.639117 21.3651C0.647031 20.26 0.660281 19.155 0.669085 18.05C0.673176 17.5336 0.989221 17.1025 1.25084 16.6798C1.52767 16.233 1.81348 15.7919 2.10383 15.3538C2.39417 14.9158 2.69074 14.4787 2.99212 14.0466C3.12711 13.8531 3.26346 13.6604 3.40118 13.4686C3.52159 13.3013 3.6379 13.0927 3.80837 12.972C3.98623 12.846 4.23807 12.885 4.44473 12.8844C4.6677 12.8836 4.89064 12.8824 5.11355 12.8808C5.63176 12.8771 6.14993 12.8726 6.66808 12.8674C7.2764 12.8615 7.88474 12.856 8.49312 12.8509C8.77146 12.8488 9.04977 12.8469 9.32805 12.8455C9.44037 12.8448 9.54859 12.8366 9.64197 12.9113C9.67679 12.9403 9.70489 12.9765 9.72431 13.0174C9.74374 13.0584 9.75402 13.103 9.75446 13.1484C9.76335 13.4223 10.1902 13.424 10.1813 13.1484C10.1797 13.0095 10.1391 12.8738 10.0642 12.7569C9.98923 12.64 9.88292 12.5465 9.75739 12.4871C9.52156 12.3804 9.23842 12.4189 8.98604 12.4206C8.42634 12.4241 7.86663 12.4288 7.30693 12.4345C6.27787 12.4441 5.24881 12.4569 4.21966 12.458C3.91144 12.458 3.64093 12.5219 3.4187 12.7475C3.25217 12.9356 3.10037 13.1363 2.96464 13.3478C2.65909 13.7747 2.3597 14.2062 2.06648 14.6424C1.75061 15.1103 1.44079 15.5822 1.13702 16.058C1.00303 16.2693 0.870889 16.4817 0.740582 16.6951C0.586577 16.9295 0.455743 17.1784 0.349927 17.4382C0.23121 17.7604 0.242415 18.092 0.240103 18.4297C0.238146 18.7269 0.235508 19.0241 0.232188 19.3214C0.224985 20.0026 0.217159 20.6838 0.212269 21.3651C0.210223 21.6398 0.637071 21.64 0.639117 21.3651Z" fill="#211715"/>
<path d="M9.75437 11.5809C9.75597 12.1802 9.75793 12.7795 9.76024 13.3787C9.76332 14.2734 9.76646 15.1682 9.76966 16.0631C9.77322 17.0493 9.77666 18.0355 9.77998 19.0217C9.783 19.9073 9.78582 20.793 9.78843 21.6786C9.79021 22.2683 9.79157 22.8579 9.79252 23.4476V23.5787C9.79252 23.8534 10.2194 23.8539 10.2194 23.5787C10.2194 23.0405 10.2183 22.5023 10.2161 21.9641C10.2136 21.1008 10.2109 20.2375 10.208 19.3743C10.2047 18.3901 10.2013 17.4057 10.1978 16.421C10.1945 15.5077 10.1913 14.5943 10.1882 13.6809C10.1858 13.0339 10.1837 12.387 10.1817 11.7401C10.1817 11.6871 10.1815 11.634 10.1812 11.5809C10.1804 11.3063 9.75357 11.3058 9.75437 11.5809Z" fill="#211715"/>
<path d="M8.8908 14.0175C8.88907 13.932 8.86788 13.848 8.82883 13.7719C8.78979 13.6958 8.73392 13.6296 8.66546 13.5783C8.5379 13.4951 8.38605 13.4572 8.23434 13.4707C7.92179 13.4703 7.60925 13.4697 7.2967 13.4689C6.66064 13.4677 6.02472 13.4664 5.38895 13.4651C5.09007 13.4651 4.73588 13.4206 4.47888 13.604C4.25034 13.767 4.09445 14.038 3.93349 14.2643C3.55662 14.7943 3.19451 15.3349 2.8372 15.8782C2.64311 16.1735 2.45085 16.4701 2.26043 16.7679C2.09502 17.0267 1.93051 17.2788 2.02922 17.5984C2.07146 17.736 2.15278 17.8584 2.2633 17.9507C2.37381 18.0429 2.50875 18.101 2.6517 18.118C2.80659 18.1235 2.96126 18.1024 3.10905 18.0558C3.26592 18.0197 3.42273 17.9838 3.57947 17.9479C4.89657 17.6463 6.21446 17.348 7.53004 17.0399C7.80577 16.9753 8.08145 16.9101 8.35706 16.8442C8.50824 16.8079 8.65372 16.7721 8.76159 16.6509C8.8637 16.528 8.91407 16.3702 8.90209 16.2109C8.89907 15.5972 8.8961 14.9836 8.8932 14.3701C8.89267 14.2528 8.8921 14.1355 8.89151 14.0182C8.89027 13.7436 8.46342 13.7431 8.46466 14.0182C8.46715 14.5452 8.46967 15.0722 8.47222 15.5993C8.47293 15.7403 8.47361 15.8813 8.47427 16.0224C8.47427 16.1126 8.50628 16.2694 8.45959 16.3461C8.41433 16.4206 8.27952 16.4244 8.20091 16.4433C8.07724 16.4729 7.95351 16.5024 7.82973 16.5316C6.64869 16.8111 5.46517 17.0799 4.28155 17.3498C3.98021 17.4186 3.67887 17.4875 3.37752 17.5565L2.94445 17.6559C2.84422 17.6936 2.73538 17.7022 2.63045 17.6808C2.55361 17.653 2.49087 17.596 2.4559 17.5221C2.42092 17.4482 2.41654 17.3635 2.4437 17.2865C2.5037 17.1626 2.57578 17.0449 2.65891 16.9352C2.74511 16.8004 2.83172 16.666 2.91875 16.5318C3.25934 16.0066 3.60633 15.4856 3.95973 14.9687C4.10779 14.7533 4.25745 14.5389 4.41058 14.3271C4.4771 14.2349 4.54148 14.139 4.61627 14.0533C4.65469 14.0043 4.70357 13.9645 4.75934 13.9368C4.81511 13.9091 4.87637 13.8943 4.93863 13.8933C5.19367 13.8789 5.45272 13.8911 5.70811 13.8916C6.0008 13.892 6.29346 13.8926 6.58609 13.8934L7.49314 13.8954C7.77014 13.896 8.04991 13.8849 8.32665 13.8968C8.34361 13.8952 8.36071 13.8971 8.37692 13.9023C8.39313 13.9076 8.4081 13.9161 8.42091 13.9273C8.43373 13.9385 8.44411 13.9522 8.45144 13.9676C8.45876 13.983 8.46287 13.9997 8.46351 14.0167C8.47747 14.291 8.9044 14.2926 8.8908 14.0175Z" fill="#211715"/>
<path d="M30.5524 21.1681C30.5527 21.4986 30.5532 21.829 30.5539 22.1594L30.5549 22.716C30.5549 22.8623 30.5686 23.008 30.4973 23.1411C30.4646 23.2024 30.4196 23.2561 30.365 23.299C30.3104 23.3419 30.2475 23.3729 30.1803 23.3901C30.0626 23.4096 29.943 23.4146 29.8241 23.4049C29.564 23.4049 29.3038 23.4047 29.0436 23.4043C27.7846 23.4038 26.5256 23.4038 25.2667 23.4043C24.8241 23.4043 24.3814 23.4043 23.9387 23.4043C23.664 23.4043 23.6636 23.8312 23.9387 23.8312C24.9694 23.8312 26.0001 23.8309 27.0309 23.8303C27.6934 23.8303 28.3559 23.8303 29.0185 23.8303C29.2837 23.8303 29.5489 23.8305 29.8142 23.8308C29.9548 23.8374 30.0958 23.8314 30.2354 23.8131C30.4258 23.7771 30.5997 23.6812 30.7316 23.5393C31.0399 23.2048 30.9818 22.7607 30.9811 22.3408C30.9804 21.9495 30.9797 21.5584 30.9792 21.1674C30.9792 20.8928 30.5524 20.8923 30.5524 21.1674V21.1681Z" fill="#211715"/>
<path d="M9.46286 8.83915L12.859 8.84084L17.3087 8.84324L21.9621 8.84582C23.3115 8.84665 24.6608 8.84736 26.0102 8.84795C26.884 8.84842 27.7578 8.84875 28.6315 8.84893H28.816C29.0906 8.84893 29.0911 8.42208 28.816 8.42208C28.0199 8.42208 27.2238 8.42181 26.4278 8.42128C25.1179 8.42075 23.8081 8.42009 22.4984 8.41932L17.8743 8.41674L13.3672 8.41425L9.7983 8.41248H9.46295C9.18835 8.41248 9.1879 8.83932 9.46295 8.83932L9.46286 8.83915Z" fill="#211715"/>
<path d="M25.3116 21.6242C26.4234 21.6242 27.5352 21.6251 28.6471 21.627C28.8879 21.627 29.1286 21.627 29.3693 21.627C29.644 21.627 29.6444 21.2001 29.3693 21.2001C28.2152 21.2001 27.0611 21.1992 25.9069 21.1973C25.7086 21.1973 25.5101 21.1973 25.3116 21.1973C25.037 21.1973 25.0365 21.6242 25.3116 21.6242Z" fill="#211715"/>
<path d="M10.8989 6.38849C11.5264 6.38849 12.1539 6.38973 12.7815 6.39222C13.7907 6.39507 14.7998 6.39827 15.809 6.40183L19.5017 6.41463C20.7946 6.41914 22.0875 6.42361 23.3803 6.42806C24.5753 6.43203 25.7703 6.43586 26.9652 6.43953C27.9025 6.44238 28.8398 6.44472 29.7771 6.44656C29.9513 6.44691 30.1255 6.44718 30.2996 6.44736C30.3952 6.44736 30.5027 6.44184 30.5318 6.55603C30.5453 6.66361 30.5466 6.77237 30.5357 6.88025C30.5361 7.40788 30.5366 7.93566 30.5373 8.46359C30.5391 9.80965 30.5412 11.1558 30.5436 12.5019C30.546 13.9594 30.5484 15.4169 30.5508 16.8744C30.5526 18.112 30.554 19.3497 30.555 20.5873C30.555 20.8158 30.555 21.0443 30.555 21.2729C30.555 21.5475 30.9819 21.5479 30.9819 21.2729C30.9819 20.1283 30.9808 18.9837 30.9788 17.8391C30.9768 16.3877 30.9744 14.9363 30.9718 13.4849C30.9695 12.0761 30.9673 10.6674 30.9651 9.25877C30.9642 8.67435 30.9634 8.08992 30.9628 7.5055C30.9628 7.26172 30.9627 7.01797 30.9623 6.77425C30.9623 6.61418 30.97 6.45554 30.8894 6.31041C30.8376 6.22164 30.7634 6.1481 30.6741 6.09722C30.5848 6.04633 30.4837 6.0199 30.3809 6.0206C29.5427 5.99801 28.7009 6.01757 27.8623 6.015C26.7154 6.01209 25.5685 6.00865 24.4217 6.00468C23.1308 6.00041 21.8398 5.99599 20.5487 5.99143L16.7332 5.97809C15.6437 5.97436 14.5542 5.9708 13.4647 5.96742C12.7191 5.96511 11.9735 5.96318 11.2279 5.96164C11.1182 5.96164 11.0085 5.96164 10.8989 5.96164C10.6242 5.96164 10.6238 6.38849 10.8989 6.38849Z" fill="#211715"/>
<path d="M8.20109 23.8313C8.65858 23.8313 9.11611 23.831 9.57367 23.8305L12.1436 23.8286L15.1554 23.8264L17.8529 23.8246C18.3954 23.8243 18.9378 23.824 19.4803 23.8239H19.5705C19.8452 23.8239 19.8456 23.3971 19.5705 23.3971C19.0903 23.3967 18.6101 23.3967 18.1299 23.3971C17.2614 23.3975 16.3929 23.398 15.5244 23.3987L12.5106 23.401L9.84418 23.4029C9.32325 23.4033 8.80229 23.4036 8.2813 23.4039H8.20126C7.92657 23.4039 7.92612 23.8308 8.20126 23.8308L8.20109 23.8313Z" fill="#211715"/>
<path d="M21.2664 11.5692C18.7963 11.589 15.2821 11.6028 14.1683 11.6048C14.1167 11.6047 14.0672 11.6251 14.0307 11.6616C13.9942 11.698 13.9735 11.7474 13.9734 11.799C13.9691 12.5415 13.9473 14.5158 13.9452 15.8849C13.9451 15.9106 13.9501 15.9361 13.9599 15.9599C13.9697 15.9836 13.9841 16.0052 14.0023 16.0234C14.0205 16.0416 14.0421 16.056 14.0659 16.0658C14.0897 16.0756 14.1151 16.0806 14.1409 16.0805C15.3669 16.0777 19.6462 16.0539 21.296 16.0519C21.3216 16.0519 21.347 16.0469 21.3707 16.0371C21.3943 16.0273 21.4159 16.0129 21.434 15.9948C21.4521 15.9766 21.4664 15.9551 21.4762 15.9314C21.486 15.9077 21.491 15.8823 21.4909 15.8567C21.489 14.4882 21.4689 12.4139 21.4634 11.7628C21.4632 11.7371 21.458 11.7118 21.448 11.6881C21.4379 11.6645 21.4234 11.6431 21.4051 11.6251C21.3868 11.6071 21.3651 11.5929 21.3413 11.5833C21.3175 11.5737 21.292 11.5689 21.2664 11.5692Z" fill="#87CCE3"/>
<path d="M21.2664 11.3558C19.3878 11.3708 17.5092 11.3811 15.6306 11.3868C15.2919 11.388 14.9533 11.3891 14.6148 11.3901L14.2341 11.391C13.982 11.391 13.7732 11.5284 13.76 11.7987C13.7436 12.1322 13.7548 12.4695 13.752 12.8036C13.7479 13.2732 13.744 13.7428 13.7403 14.2124C13.7367 14.6968 13.734 15.1812 13.7322 15.6656C13.7223 15.7767 13.7275 15.8886 13.7476 15.9983C13.7672 16.0647 13.8031 16.125 13.852 16.1739C13.9009 16.2228 13.9613 16.2587 14.0276 16.2783C14.1519 16.3 14.2786 16.3051 14.4043 16.2933C15.0556 16.2912 15.7069 16.2884 16.3582 16.285C17.9051 16.2778 19.452 16.2715 20.9989 16.266C21.1541 16.266 21.3457 16.2927 21.4862 16.2182C21.7323 16.0875 21.7046 15.8219 21.7039 15.5847C21.7026 15.1175 21.7002 14.6503 21.6968 14.1832C21.6914 13.3962 21.685 12.6092 21.6775 11.8223C21.6753 11.5666 21.5334 11.3733 21.2664 11.356C21.2098 11.356 21.1555 11.3785 21.1155 11.4185C21.0754 11.4586 21.0529 11.5128 21.0529 11.5694C21.0529 11.626 21.0754 11.6803 21.1155 11.7204C21.1555 11.7604 21.2098 11.7829 21.2664 11.7829C21.2537 11.782 21.25 11.7626 21.2502 11.7629C21.2533 11.7879 21.2535 11.8131 21.2508 11.8381L21.2524 12.0186C21.2537 12.1741 21.2551 12.3295 21.2565 12.4849C21.2601 12.8924 21.2634 13.2999 21.2666 13.7074C21.2699 14.1666 21.2729 14.6258 21.2754 15.085C21.2764 15.2975 21.2771 15.5101 21.2777 15.7228C21.2777 15.7672 21.2787 15.8122 21.2777 15.8569C21.2777 15.8504 21.2895 15.8379 21.2962 15.8391C21.2329 15.8356 21.1694 15.8356 21.1061 15.8391C19.6652 15.8418 18.2241 15.8476 16.783 15.8563C16.1121 15.8594 15.4411 15.8624 14.7701 15.8652L14.4043 15.8666C14.317 15.8758 14.229 15.8753 14.1419 15.8651C14.177 15.8746 14.1586 15.9007 14.1587 15.8233C14.1587 15.7758 14.1587 15.7286 14.1587 15.6817C14.1587 15.5673 14.1591 15.4528 14.16 15.3384C14.161 15.1093 14.1622 14.8802 14.1637 14.6511C14.1692 13.8132 14.1775 12.9753 14.1841 12.1373C14.1846 12.0699 14.1851 12.0025 14.1856 11.935C14.1856 11.904 14.1856 11.8728 14.1862 11.8419C14.1882 11.7677 14.1951 11.8229 14.1697 11.8204C14.2543 11.8293 14.3676 11.8179 14.4604 11.8176C14.7603 11.8169 15.0602 11.816 15.36 11.815C17.1145 11.809 18.8689 11.8 20.6233 11.7878C20.8374 11.7863 21.0517 11.7847 21.266 11.783C21.541 11.7804 21.5416 11.3535 21.2664 11.3558Z" fill="#211715"/>
<path d="M17.5055 16.0507C18.5854 15.1408 19.6722 14.2374 20.778 13.3592C20.8502 13.3019 20.9226 13.2448 20.9951 13.1879C21.0288 13.1615 21.0626 13.1352 21.0963 13.1088L21.1289 13.0835L21.1608 13.0587C21.1439 13.0719 21.145 13.071 21.1644 13.056C21.2689 12.976 21.3738 12.896 21.4807 12.8189C21.5284 12.7892 21.5629 12.7425 21.5771 12.6882C21.5914 12.6339 21.5842 12.5762 21.5573 12.5269C21.5284 12.4784 21.4816 12.4431 21.4269 12.4288C21.3723 12.4145 21.3142 12.4222 21.2652 12.4504C20.7405 12.8286 20.2408 13.2428 19.7391 13.6503C19.1277 14.1473 18.5196 14.6482 17.9148 15.1532C17.6773 15.3511 17.4402 15.5495 17.2034 15.7485C17.1638 15.7887 17.1416 15.8429 17.1416 15.8994C17.1416 15.9559 17.1638 16.01 17.2034 16.0503C17.244 16.0893 17.2981 16.111 17.3543 16.111C17.4106 16.111 17.4646 16.0893 17.5052 16.0503L17.5055 16.0507Z" fill="#211715"/>
<path d="M20.4048 15.1546C20.7998 14.8485 21.1865 14.5321 21.5816 14.2259C21.6015 14.206 21.6173 14.1825 21.6281 14.1565C21.6388 14.1306 21.6444 14.1028 21.6444 14.0747C21.6444 14.0466 21.6388 14.0188 21.6281 13.9929C21.6173 13.9669 21.6015 13.9434 21.5816 13.9235C21.5408 13.8851 21.4868 13.8637 21.4307 13.8637C21.3746 13.8637 21.3206 13.8851 21.2798 13.9235C20.8847 14.2295 20.498 14.546 20.1029 14.8523C20.0831 14.8721 20.0674 14.8956 20.0567 14.9215C20.0459 14.9474 20.0404 14.9752 20.0404 15.0032C20.0404 15.0313 20.0459 15.059 20.0567 15.0849C20.0674 15.1108 20.0831 15.1344 20.1029 15.1542C20.1438 15.1926 20.1978 15.214 20.2539 15.214C20.3099 15.214 20.3639 15.1926 20.4048 15.1542V15.1546Z" fill="#211715"/>
<path d="M5.53915 11.6702C5.66365 12.0282 5.80487 12.3801 5.96102 12.7255C5.98973 12.7742 6.03653 12.8096 6.09122 12.8239C6.14591 12.8383 6.20405 12.8304 6.25297 12.8021C6.30064 12.7724 6.33514 12.7256 6.34938 12.6713C6.36362 12.617 6.35652 12.5593 6.32953 12.51C6.29242 12.4279 6.2562 12.3453 6.22087 12.2624C6.20095 12.2161 6.22976 12.2849 6.21197 12.2423C6.2021 12.2185 6.19223 12.1947 6.18245 12.1711C6.1665 12.1323 6.15082 12.0935 6.13541 12.0547C6.07019 11.8902 6.00854 11.7242 5.95044 11.5567C5.93539 11.5021 5.89928 11.4558 5.85004 11.4278C5.8008 11.3998 5.74247 11.3926 5.68788 11.4076C5.6333 11.4227 5.58692 11.4588 5.55896 11.508C5.531 11.5573 5.52375 11.6156 5.5388 11.6702H5.53915Z" fill="#211715"/>
<path d="M2.41463 21.2071C1.79837 21.2071 1.1821 21.1998 0.565841 21.1983C0.377495 21.1976 0.185146 21.1974 0.071231 21.3761C-0.0132493 21.5085 0.00764846 21.6745 0.00702597 21.8246C0.00569207 22.1757 -0.00364523 22.5276 0.00160144 22.8787C0.00277124 23.0357 0.043087 23.1898 0.118895 23.3273C0.194704 23.4647 0.303609 23.5811 0.435742 23.6658C0.658503 23.8081 0.906075 23.8065 1.15952 23.8074C1.64855 23.8094 2.13765 23.8111 2.62681 23.8124C2.99523 23.8136 3.36374 23.8154 3.73216 23.8155C4.00677 23.8155 4.00722 23.3887 3.73216 23.3887C3.00768 23.3887 2.28328 23.3847 1.55889 23.3821L0.983441 23.3799C0.770017 23.3789 0.578202 23.3019 0.478515 23.1003C0.433625 22.9874 0.416722 22.8654 0.42925 22.7446C0.430198 22.5755 0.431117 22.4066 0.432007 22.2377C0.432777 22.0839 0.433489 21.9301 0.434141 21.7763C0.434141 21.7375 0.453705 21.6347 0.434674 21.6018C0.420713 21.5777 0.4425 21.6018 0.425782 21.6147C0.41684 21.6177 0.40818 21.6215 0.399904 21.626C0.430465 21.6272 0.461066 21.6268 0.491587 21.6248C1.13275 21.6266 1.77391 21.6343 2.41507 21.6344C2.68977 21.6344 2.69021 21.2076 2.41507 21.2076L2.41463 21.2071Z" fill="#211715"/>
<path d="M8.80988 18.4049C8.80919 18.3154 8.7841 18.2279 8.73732 18.1517C8.69055 18.0755 8.62385 18.0134 8.54443 17.9723C8.38979 17.8946 8.20135 17.9197 8.03346 17.9197H7.46886C7.31004 17.9197 7.11885 17.8925 6.96758 17.9488C6.88411 17.9811 6.81101 18.0356 6.75611 18.1063C6.70121 18.1771 6.66658 18.2614 6.65592 18.3503C6.64526 18.4392 6.65897 18.5293 6.69559 18.611C6.73221 18.6927 6.79035 18.7629 6.86381 18.8141C7.01133 18.9155 7.19381 18.8953 7.3634 18.8953H8.18321C8.27858 18.9027 8.37451 18.8956 8.46778 18.8744C8.56719 18.8425 8.6539 18.7798 8.71538 18.6954C8.77687 18.611 8.80996 18.5093 8.80988 18.4049C8.81397 18.1759 8.45826 18.1759 8.45417 18.4049C8.4556 18.4378 8.44443 18.4699 8.42295 18.4949C8.40147 18.5198 8.37129 18.5356 8.33857 18.5391C8.21544 18.5469 8.09195 18.5471 7.96881 18.5396H7.17638C7.09706 18.5396 7.02218 18.5237 7.0052 18.4329C6.99881 18.4027 7.00319 18.3712 7.01759 18.3439C7.03198 18.3167 7.05547 18.2953 7.08399 18.2835C7.13077 18.2726 7.17907 18.2698 7.2268 18.2751H8.28032C8.36853 18.2751 8.45204 18.3006 8.45417 18.4046C8.45906 18.6337 8.81477 18.6342 8.80988 18.4049Z" fill="#211715"/>
<path d="M11.3995 21.5115C12.2048 21.5115 13.0102 21.5121 13.8155 21.5133C14.9619 21.5143 16.1082 21.5152 17.2545 21.5161C17.6918 21.5161 18.129 21.5163 18.5664 21.5167C18.841 21.5167 18.8414 21.0898 18.5664 21.0898C17.6458 21.0898 16.7251 21.0893 15.8044 21.0881L12.4625 21.0853C12.1082 21.0853 11.7539 21.0851 11.3995 21.0847C11.1248 21.0847 11.1244 21.5115 11.3995 21.5115Z" fill="#211715"/>
<path d="M0.504126 19.678C0.716127 19.678 0.928128 19.6818 1.14004 19.6844C1.16512 19.6844 1.19019 19.6844 1.21518 19.6853C1.22808 19.6853 1.24088 19.6857 1.25378 19.6866C1.23928 19.6853 1.23937 19.6866 1.25378 19.6893C1.27233 19.6947 1.28921 19.7048 1.30287 19.7185C1.33372 19.7511 1.30287 19.7056 1.32207 19.7467C1.30856 19.7181 1.33097 19.7769 1.33177 19.7803C1.3267 19.7516 1.33088 19.7987 1.33097 19.807C1.33097 19.8349 1.33034 19.8629 1.32999 19.8909C1.32474 20.3301 1.3154 20.7692 1.3082 21.2083C1.30375 21.4831 1.7306 21.4832 1.73505 21.2083C1.73914 20.9629 1.74347 20.7174 1.74803 20.472C1.75028 20.3411 1.75239 20.2102 1.75435 20.0795C1.76217 19.959 1.7611 19.8381 1.75114 19.7178C1.7327 19.5919 1.67019 19.4766 1.57473 19.3925C1.47928 19.3084 1.35707 19.2609 1.22986 19.2584C0.988776 19.2471 0.745295 19.2512 0.503948 19.2509C0.229253 19.2509 0.228809 19.6778 0.503948 19.6778L0.504126 19.678Z" fill="#211715"/>
</svg>
