<svg width="25" height="24" viewBox="0 0 25 24" fill="none" xmlns="http://www.w3.org/2000/svg">
<g clip-path="url(#clip0_58_198)">
<path d="M20.2913 4.61183C19.7805 4.10083 19.1741 3.69547 18.5066 3.41891C17.8392 3.14235 17.1238 3 16.4013 3C15.6788 3 14.9634 3.14235 14.2959 3.41891C13.6285 3.69547 13.022 4.10083 12.5113 4.61183L11.4513 5.67183L10.3913 4.61183C9.3596 3.58013 7.96032 3.00053 6.50129 3.00053C5.04226 3.00053 3.64298 3.58013 2.61129 4.61183C1.5796 5.64352 1 7.04279 1 8.50183C1 9.96086 1.5796 11.3601 2.61129 12.3918L3.67129 13.4518L11.4513 21.2318L19.2313 13.4518L20.2913 12.3918C20.8023 11.8811 21.2076 11.2746 21.4842 10.6072C21.7608 9.93972 21.9031 9.22431 21.9031 8.50183C21.9031 7.77934 21.7608 7.06393 21.4842 6.39647C21.2076 5.72901 20.8023 5.12258 20.2913 4.61183Z" stroke="#101828" stroke-width="2.3" stroke-linecap="round" stroke-linejoin="round"/>
</g>
<defs>
<clipPath id="clip0_58_198">
<rect width="24" height="24" fill="white" transform="translate(0.5)"/>
</clipPath>
</defs>
</svg>
