<svg width="18" height="20" viewBox="0 0 18 20" fill="none" xmlns="http://www.w3.org/2000/svg">
<g clip-path="url(#clip0_46_657)">
<path d="M16.5 8.33334C16.5 14.1667 9 19.1667 9 19.1667C9 19.1667 1.5 14.1667 1.5 8.33334C1.5 6.34422 2.29018 4.43657 3.6967 3.03004C5.10322 1.62352 7.01088 0.833344 9 0.833344C10.9891 0.833344 12.8968 1.62352 14.3033 3.03004C15.7098 4.43657 16.5 6.34422 16.5 8.33334Z" stroke="#101828" stroke-width="1.5" stroke-linecap="round" stroke-linejoin="round"/>
<path d="M8.5 10C9.88071 10 11 8.88071 11 7.5C11 6.11929 9.88071 5 8.5 5C7.11929 5 6 6.11929 6 7.5C6 8.88071 7.11929 10 8.5 10Z" stroke="#101828" stroke-width="1.5" stroke-linecap="round" stroke-linejoin="round"/>
</g>
<defs>
<clipPath id="clip0_46_657">
<rect width="18" height="20" fill="white"/>
</clipPath>
</defs>
</svg>
