<svg width="20" height="20" viewBox="0 0 20 20" fill="none" xmlns="http://www.w3.org/2000/svg">
<path d="M16.4752 6.025L16.4835 6.01667L13.3835 2.91667L12.5002 3.8L14.2585 5.55833C13.4752 5.85833 12.9168 6.60833 12.9168 7.5C12.9168 7.77359 12.9707 8.0445 13.0754 8.29726C13.1801 8.55002 13.3336 8.77968 13.527 8.97314C13.9177 9.36384 14.4476 9.58333 15.0002 9.58333C15.3002 9.58333 15.5752 9.51667 15.8335 9.40833V15.4167C15.8335 15.6377 15.7457 15.8496 15.5894 16.0059C15.4331 16.1622 15.2212 16.25 15.0002 16.25C14.7791 16.25 14.5672 16.1622 14.4109 16.0059C14.2546 15.8496 14.1668 15.6377 14.1668 15.4167V11.6667C14.1668 11.2246 13.9912 10.8007 13.6787 10.4882C13.3661 10.1756 12.9422 10 12.5002 10H11.6668V4.16667C11.6668 3.72464 11.4912 3.30072 11.1787 2.98816C10.8661 2.67559 10.4422 2.5 10.0002 2.5H5.00016C4.55814 2.5 4.13421 2.67559 3.82165 2.98816C3.50909 3.30072 3.3335 3.72464 3.3335 4.16667V17.5H11.6668V11.25H12.9168V15.4167C12.9168 15.9692 13.1363 16.4991 13.527 16.8898C13.9177 17.2805 14.4476 17.5 15.0002 17.5C15.2737 17.5 15.5447 17.4461 15.7974 17.3414C16.0502 17.2367 16.2798 17.0833 16.4733 16.8898C16.6668 16.6964 16.8202 16.4667 16.9249 16.2139C17.0296 15.9612 17.0835 15.6903 17.0835 15.4167V7.5C17.0835 6.925 16.8502 6.4 16.4752 6.025ZM10.0002 11.25V15.8333H5.00016V10H10.0002V11.25ZM10.0002 8.33333H5.00016V4.16667H10.0002V8.33333ZM15.0002 8.33333C14.7791 8.33333 14.5672 8.24554 14.4109 8.08926C14.2546 7.93297 14.1668 7.72101 14.1668 7.5C14.1668 7.27899 14.2546 7.06702 14.4109 6.91074C14.5672 6.75446 14.7791 6.66667 15.0002 6.66667C15.2212 6.66667 15.4331 6.75446 15.5894 6.91074C15.7457 7.06702 15.8335 7.27899 15.8335 7.5C15.8335 7.72101 15.7457 7.93297 15.5894 8.08926C15.4331 8.24554 15.2212 8.33333 15.0002 8.33333Z" fill="#101828"/>
</svg>
